<svg width="24" height="24" viewBox="0 0 24 24" fill="none" xmlns="http://www.w3.org/2000/svg">
<g clip-path="url(#clip0_535_11565)">
<path d="M9 23.25H15C15.207 23.25 15.375 23.082 15.375 22.875V19.875C15.375 18.5269 14.5785 17.3644 13.4332 16.824C14.0704 16.4096 14.5185 15.7279 14.6066 14.9276C14.6201 14.8282 14.625 14.7289 14.625 14.625C14.625 14.5391 14.6205 14.4578 14.6119 14.3846C14.4896 13.0474 13.3421 12 12 12C10.6579 12 9.51038 13.0474 9.38888 14.3764C9.3795 14.4578 9.375 14.5391 9.375 14.625C9.375 14.7289 9.37987 14.8282 9.39225 14.9171C9.48112 15.7237 9.92963 16.4085 10.5671 16.8236C9.4215 17.364 8.625 18.5269 8.625 19.875V22.875C8.625 23.082 8.793 23.25 9 23.25ZM12 12.75C12.7957 12.75 13.4891 13.2694 13.7543 13.9957C13.2308 13.6766 12.6255 13.5 12 13.5C11.3738 13.5 10.7677 13.6774 10.2439 13.9973C10.5067 13.272 11.202 12.75 12 12.75V12.75ZM10.1719 14.9977C10.6583 14.5222 11.3134 14.25 12 14.25C12.687 14.25 13.3421 14.5222 13.8285 14.9981C13.6545 15.8636 12.9004 16.5 12 16.5C11.1022 16.5 10.35 15.8674 10.1719 14.9977V14.9977ZM12.3491 20.175L12 20.6989L11.6509 20.175L12 18.6038L12.3491 20.175ZM9.375 19.875C9.375 18.591 10.3024 17.5211 11.5226 17.2958L10.884 20.1686C10.8619 20.2684 10.8814 20.373 10.938 20.4578L11.688 21.5828C11.7577 21.6874 11.8748 21.75 12 21.75C12.1252 21.75 12.2423 21.6874 12.312 21.5831L13.062 20.4581C13.1186 20.373 13.1381 20.2688 13.116 20.169L12.4774 17.2961C13.6976 17.5211 14.625 18.591 14.625 19.875V22.5H9.375V19.875Z" fill="black"/>
<path d="M10.4406 9.16687C10.3356 9.00975 10.1304 8.95537 9.96094 9.03937L7.71094 10.1644L8.04656 10.8352L10.0003 9.85837L10.5666 10.7081C10.6378 10.815 10.7563 10.875 10.8786 10.875C10.9281 10.875 10.9783 10.8653 11.0263 10.8446L13.3644 9.84262L13.9416 10.7081C14.0117 10.8131 14.1291 10.875 14.2536 10.875C14.2701 10.875 14.2866 10.8739 14.3034 10.8716C14.4452 10.8525 14.5641 10.7546 14.6094 10.6185L15.3594 8.3685C15.3977 8.25412 15.3782 8.1285 15.3077 8.03063C15.2372 7.93275 15.1239 7.875 15.0036 7.875H12.7536C12.6152 7.875 12.4881 7.95112 12.4228 8.073C12.3576 8.19487 12.3647 8.343 12.4416 8.45775L12.9414 9.20775L11.0173 10.0324L10.4406 9.16687ZM14.4834 8.625L14.1403 9.654L13.4544 8.625H14.4834Z" fill="black"/>
<path d="M15.5291 16.8529L15.9709 17.4589C17.7109 16.1914 18.75 14.1503 18.75 12C18.75 8.27812 15.7219 5.25 12 5.25C8.27812 5.25 5.25 8.27812 5.25 12C5.25 14.1503 6.28912 16.1914 8.02912 17.4589L8.47088 16.8529C6.92363 15.7256 6 13.9118 6 12C6 8.69175 8.69175 6 12 6C15.3082 6 18 8.69175 18 12C18 13.9118 17.0764 15.7256 15.5291 16.8529Z" fill="black"/>
</g>
<defs>
<clipPath id="clip0_535_11565">
<rect width="24" height="24" fill="white"/>
</clipPath>
</defs>
</svg>
